<svg width="200" height="17" viewBox="0 0 361 17" fill="none" xmlns="http://www.w3.org/2000/svg">
<path d="M0.851562 7.6665H134.185V8.99951H0.851562V7.6665ZM140.852 8.3335C140.852 8.86393 140.641 9.37273 140.266 9.7478C139.891 10.1229 139.382 10.3335 138.852 10.3335C138.321 10.3335 137.812 10.1229 137.437 9.7478C137.062 9.37273 136.852 8.86393 136.852 8.3335C136.852 7.80306 137.062 7.29426 137.437 6.91919C137.812 6.54412 138.321 6.3335 138.852 6.3335C139.382 6.3335 139.891 6.54412 140.266 6.91919C140.641 7.29426 140.852 7.80306 140.852 8.3335ZM152.852 8.3335C152.852 9.39436 152.43 10.4117 151.68 11.1619C150.93 11.912 149.912 12.3335 148.852 12.3335C147.791 12.3335 146.773 11.912 146.023 11.1619C145.273 10.4117 144.852 9.39436 144.852 8.3335C144.852 7.27263 145.273 6.25527 146.023 5.50513C146.773 4.75498 147.791 4.3335 148.852 4.3335C149.912 4.3335 150.93 4.75498 151.68 5.50513C152.43 6.25527 152.852 7.27263 152.852 8.3335ZM168.852 8.3335C168.852 9.9248 168.219 11.451 167.094 12.5762C165.969 13.7014 164.443 14.3335 162.852 14.3335C161.26 14.3335 159.734 13.7014 158.609 12.5762C157.484 11.451 156.852 9.9248 156.852 8.3335C156.852 6.7422 157.484 5.21604 158.609 4.09082C159.734 2.9656 161.26 2.3335 162.852 2.3335C164.443 2.3335 165.969 2.9656 167.094 4.09082C168.219 5.21604 168.852 6.7422 168.852 8.3335ZM188.852 8.3335C188.852 10.4552 188.009 12.4902 186.508 13.9905C185.008 15.4908 182.973 16.3335 180.852 16.3335C178.73 16.3335 176.695 15.4908 175.195 13.9905C173.694 12.4902 172.852 10.4552 172.852 8.3335C172.852 6.21176 173.694 4.17705 175.195 2.67676C176.695 1.17647 178.73 0.333496 180.852 0.333496C182.973 0.333496 185.008 1.17647 186.508 2.67676C188.009 4.17705 188.852 6.21176 188.852 8.3335ZM204.852 8.3335C204.852 9.9248 204.219 11.451 203.094 12.5762C201.969 13.7014 200.443 14.3335 198.852 14.3335C197.26 14.3335 195.734 13.7014 194.609 12.5762C193.484 11.451 192.852 9.9248 192.852 8.3335C192.852 6.7422 193.484 5.21604 194.609 4.09082C195.734 2.9656 197.26 2.3335 198.852 2.3335C200.443 2.3335 201.969 2.9656 203.094 4.09082C204.219 5.21604 204.852 6.7422 204.852 8.3335ZM216.852 8.3335C216.852 9.39436 216.43 10.4117 215.68 11.1619C214.93 11.912 213.912 12.3335 212.852 12.3335C211.791 12.3335 210.773 11.912 210.023 11.1619C209.273 10.4117 208.852 9.39436 208.852 8.3335C208.852 7.27263 209.273 6.25527 210.023 5.50513C210.773 4.75498 211.791 4.3335 212.852 4.3335C213.912 4.3335 214.93 4.75498 215.68 5.50513C216.43 6.25527 216.852 7.27263 216.852 8.3335ZM224.852 8.3335C224.852 8.86393 224.641 9.37273 224.266 9.7478C223.891 10.1229 223.382 10.3335 222.852 10.3335C222.321 10.3335 221.812 10.1229 221.437 9.7478C221.062 9.37273 220.852 8.86393 220.852 8.3335C220.852 7.80306 221.062 7.29426 221.437 6.91919C221.812 6.54412 222.321 6.3335 222.852 6.3335C223.382 6.3335 223.891 6.54412 224.266 6.91919C224.641 7.29426 224.852 7.80306 224.852 8.3335ZM227.519 7.6665H360.852V8.99951H227.519V7.6665Z" fill="#DB9E30"/>
</svg>
